<svg width="400" height="300" viewBox="0 0 400 300" xmlns="http://www.w3.org/2000/svg">
  <!-- Laptop Base -->
  <rect x="50" y="180" width="300" height="20" rx="2" fill="#2A536F"/>
  
  <!-- Laptop Screen -->
  <rect x="70" y="60" width="260" height="120" rx="5" fill="#2A536F"/>
  <rect x="75" y="65" width="250" height="110" rx="2" fill="#ffffff"/>
  
  <!-- Website Mockup on Screen -->
  <rect x="85" y="75" width="230" height="20" fill="#2A536F" opacity="0.9"/>
  <rect x="95" y="80" width="20" height="10" fill="#D4AF37"/>
  <rect x="125" y="80" width="40" height="10" fill="#ffffff" opacity="0.7"/>
  <rect x="175" y="80" width="40" height="10" fill="#ffffff" opacity="0.7"/>
  <rect x="225" y="80" width="40" height="10" fill="#ffffff" opacity="0.7"/>
  
  <!-- Hero Section -->
  <rect x="85" y="100" width="230" height="40" fill="#A0D9B1" opacity="0.3"/>
  <rect x="95" y="110" width="100" height="8" fill="#2A536F"/>
  <rect x="95" y="123" width="80" height="5" fill="#2A536F" opacity="0.7"/>
  
  <!-- Content Section -->
  <rect x="85" y="145" width="70" height="20" fill="#f5f5f5"/>
  <rect x="165" y="145" width="70" height="20" fill="#f5f5f5"/>
  <rect x="245" y="145" width="70" height="20" fill="#f5f5f5"/>
  
  <!-- Mobile Device -->
  <rect x="280" y="200" width="60" height="90" rx="5" fill="#2A536F"/>
  <rect x="285" y="210" width="50" height="70" rx="2" fill="#ffffff"/>
  
  <!-- Mobile Screen Content -->
  <rect x="290" y="215" width="40" height="10" fill="#2A536F" opacity="0.9"/>
  <rect x="290" y="230" width="40" height="15" fill="#A0D9B1" opacity="0.3"/>
  <rect x="290" y="250" width="40" height="25" fill="#f5f5f5"/>
  
  <!-- Decorative Elements -->
  <circle cx="315" cy="285" r="5" fill="#D4AF37"/>
</svg>